<?xml version="1.0" encoding="utf-8"?>
<!-- Generator: Adobe Illustrator 24.1.2, SVG Export Plug-In . SVG Version: 6.00 Build 0)  -->
<svg version="1.1"
	 id="Win11FolderIcon" inkscape:version="1.0.2 (e86c870879, 2021-01-15, custom)" xmlns:cc="http://creativecommons.org/ns#" xmlns:dc="http://purl.org/dc/elements/1.1/" xmlns:inkscape="http://www.inkscape.org/namespaces/inkscape" xmlns:rdf="http://www.w3.org/1999/02/22-rdf-syntax-ns#" xmlns:sodipodi="http://sodipodi.sourceforge.net/DTD/sodipodi-0.dtd" xmlns:svg="http://www.w3.org/2000/svg"
	 xmlns="http://www.w3.org/2000/svg" xmlns:xlink="http://www.w3.org/1999/xlink" x="0px" y="0px" viewBox="0 0 300 300"
	 style="enable-background:new 0 0 300 300;" xml:space="preserve">
<linearGradient id="BackRect_Gradient" gradientUnits="userSpaceOnUse" x1="-371.7077" y1="69.4649" x2="-371.7077" y2="23.4282" gradientTransform="matrix(2.8346 0 0 -2.8346 1203.6926 295.6771)">
	<stop id="BackGradientFirstStop" offset="0" style="stop-color:#04805C"/>
	<stop id="BackGradientSecondStop" offset="1" style="stop-color:#0A5D5E"/>
</linearGradient>
<path id="BackRect" sodipodi:nodetypes="scccscccccccs" style="fill:url(#BackRect_Gradient);" d="M35.7,40.1c-7.5,0-13.7,6.3-13.7,14
	v13.8V232c0,7.7,6.1,14,13.7,14h228.7c7.5,0,13.7-6.3,13.7-14V82c0-7.7-6.1-14-13.7-14h-128c0,0-13-18.4-18.6-22.6
	c-5.5-4.2-12.2-5.3-12.2-5.3L35.7,40.1L35.7,40.1z"/>
<g id="File" style="display:none;">
	<path id="FileRect" style="display:inline;fill:#F4F4F4;" d="M136,111.5H26.7V78.7c0-3.3,2.7-6,6-6H136V111.5z"/>
	<linearGradient id="VGradRect_1_" gradientUnits="userSpaceOnUse" x1="81.35" y1="78.3" x2="81.35" y2="91.766">
		<stop  offset="0" style="stop-color:#F4F4F4"/>
		<stop  offset="0.1272" style="stop-color:#EBEBEB"/>
		<stop  offset="0.3342" style="stop-color:#D3D3D3"/>
		<stop  offset="0.5952" style="stop-color:#ABABAB"/>
		<stop  offset="0.8971" style="stop-color:#757575"/>
		<stop  offset="1" style="stop-color:#616161"/>
	</linearGradient>
	<path id="VGradRect" style="display:inline;fill:url(#VGradRect_1_);" d="M136,91.8H26.7v-7.5c0-3.3,2.7-6,6-6H136V91.8z"/>
	<linearGradient id="HGradRect_1_" gradientUnits="userSpaceOnUse" x1="26.7" y1="97.7053" x2="137.0854" y2="97.7053">
		<stop  offset="0" style="stop-color:#F4F4F4"/>
		<stop  offset="0.1698" style="stop-color:#E9E9E9;stop-opacity:0.9151"/>
		<stop  offset="0.4278" style="stop-color:#E2E2E2;stop-opacity:0.7861"/>
		<stop  offset="1" style="stop-color:#E0E0E0;stop-opacity:0.5"/>
	</linearGradient>
	<path id="HGradRect" style="display:inline;fill:url(#HGradRect_1_);" d="M136,117.1H26.7V84.3c0-3.3,2.7-6,6-6H136V117.1z"/>
</g>
<linearGradient id="MiddleRect_Gradient" gradientUnits="userSpaceOnUse" x1="22" y1="144.8" x2="278.1" y2="144.8" gradientTransform="matrix(1 0 0 -1 0 302)">
	<stop id="MiddleGradientFirstStop" offset="0" style="stop-color:#5CD1AC"/>
	<stop id="MiddleGradientSecondStop" offset="1" style="stop-color:#1AB19B"/>
</linearGradient>
<path id="MiddleRect" style="fill:url(#MiddleRect_Gradient);" d="M136,72.7v13.9h-31.9C120,86.7,124.1,81.9,136,72.7z M136,72.7h128.4
	c7.5,0,13.7,6.2,13.7,13.9H136V72.7z M35.7,86.6h242.4v141.1c0,7.7-6.1,14-13.7,14l0,0H35.7c-7.5,0-13.7-6.3-13.7-14l0,0v-127
	C22,92.9,28.1,86.6,35.7,86.6L35.7,86.6L35.7,86.6z"/>
<linearGradient id="FrontRect_Gradient" gradientUnits="userSpaceOnUse" x1="-379.7232" y1="72.174" x2="-361.9721" y2="18.4908" gradientTransform="matrix(2.8346 0 0 -2.8346 1203.543 295.6771)">
	<stop id="FrontGradientFirstStop" offset="0" style="stop-color:#16C997"/>
	<stop id="FrontGradientSecondStop" offset="1" style="stop-color:#0099A6;stop-opacity:0.7294"/>
</linearGradient>
<path id="FrontRect" sodipodi:nodetypes="cccccccccccsccssc" style="display:inline;fill:url(#FrontRect_Gradient);" d="M137.6,78.3v13.9h-31.9
	C121.5,92.1,125.8,87.4,137.6,78.3z M137.6,78.3h126.6c7.5,0,13.7,6.2,13.7,13.9H137.6V78.3z M35.7,92.2H278v135.5
	c0,7.7-6.1,14-13.7,14H35.7c-7.5,0-13.7-6.3-13.7-14V106.2C22,98.4,28.1,92.2,35.7,92.2z"/>
</svg>
