<?xml version="1.0" encoding="utf-8"?>
<!-- Generator: Adobe Illustrator 24.1.2, SVG Export Plug-In . SVG Version: 6.00 Build 0)  -->
<svg version="1.1"
	 id="svg8" inkscape:version="1.0.2 (e86c870879, 2021-01-15, custom)" sodipodi:docname="windows11 ordner.svg" xmlns:cc="http://creativecommons.org/ns#" xmlns:dc="http://purl.org/dc/elements/1.1/" xmlns:inkscape="http://www.inkscape.org/namespaces/inkscape" xmlns:rdf="http://www.w3.org/1999/02/22-rdf-syntax-ns#" xmlns:sodipodi="http://sodipodi.sourceforge.net/DTD/sodipodi-0.dtd" xmlns:svg="http://www.w3.org/2000/svg"
	 xmlns="http://www.w3.org/2000/svg" xmlns:xlink="http://www.w3.org/1999/xlink" x="0px" y="0px" viewBox="0 0 224.8 175.9"
	 style="enable-background:new 0 0 224.8 175.9;" xml:space="preserve">
<style type="text/css">
	.st0{fill:url(#rect10_1_);}
	.st1{fill:url(#rect851_1_);}
	.st2{fill:url(#rect851-3_1_);}
</style>
<g id="layer1" transform="translate(-41.064705,-208.49026)" inkscape:groupmode="layer" inkscape:label="Ebene 1">
	
		<linearGradient id="rect10_1_" gradientUnits="userSpaceOnUse" x1="-273.3686" y1="480.8708" x2="-273.3686" y2="520.1904" gradientTransform="matrix(2.8346 0 0 2.8346 928.3907 -1104.4718)">
		<stop  offset="0" style="stop-color:#04805C"/>
		<stop  offset="1" style="stop-color:#0A5D5E"/>
	</linearGradient>
	<path id="rect10" sodipodi:nodetypes="scccscccccccs" class="st0" d="M53.1,208.5c-6.6,0-12,5.4-12,12v11.8v140.1
		c0,6.6,5.4,12,12,12h200.8c6.6,0,12-5.4,12-12V244.3c0-6.6-5.4-12-12-12H141.5c0,0-11.4-15.7-16.3-19.3c-4.9-3.6-10.7-4.5-10.7-4.5
		H53.1z"/>
	
		<linearGradient id="rect851_1_" gradientUnits="userSpaceOnUse" x1="-313.0215" y1="498.7797" x2="-233.7158" y2="498.7797" gradientTransform="matrix(2.8346 0 0 2.8316 928.3907 -1103.8445)">
		<stop  offset="0" style="stop-color:#70DAB1"/>
		<stop  offset="1" style="stop-color:#1AB19B"/>
	</linearGradient>
	<path id="rect851" class="st1" d="M141.2,236.3v11.9h-28C127.1,248.2,130.8,244.1,141.2,236.3z M141.2,236.3h112.6
		c6.6,0,12,5.3,12,11.9H141.2V236.3z M53.1,248.2h212.8v120.5c0,6.6-5.4,12-12,12l0,0H53.1c-6.6,0-12-5.4-12-12l0,0V260.2
		C41.1,253.6,46.4,248.2,53.1,248.2L53.1,248.2L53.1,248.2z"/>
	
		<linearGradient id="rect851-3_1_" gradientUnits="userSpaceOnUse" x1="-280.2664" y1="478.3371" x2="-264.9576" y2="524.6343" gradientTransform="matrix(2.8346 0 0 2.8346 928.2411 -1104.4718)">
		<stop  offset="0" style="stop-color:#16C997"/>
		<stop  offset="1" style="stop-color:#0099A6;stop-opacity:0.7294"/>
	</linearGradient>
	<path id="rect851-3" sodipodi:nodetypes="cccccccccccsccssc" class="st2" d="M142.6,241.1V253h-28
		C128.5,252.9,132.2,248.9,142.6,241.1z M142.6,241.1h111.2c6.6,0,12,5.3,12,11.9H142.6V241.1z M53.1,253h212.8v115.7
		c0,6.6-5.4,12-12,12H53.1c-6.6,0-12-5.4-12-12V265C41.1,258.3,46.4,253,53.1,253z"/>
</g>
</svg>
